<?xml version="1.0" encoding="UTF-8" standalone="no"?>
<!DOCTYPE svg PUBLIC "-//W3C//DTD SVG 1.1//EN" "http://www.w3.org/Graphics/SVG/1.1/DTD/svg11.dtd">
<!-- Created with Vectornator (http://vectornator.io/) -->
<svg height="100%" stroke-miterlimit="10" style="fill-rule:nonzero;clip-rule:evenodd;stroke-linecap:round;stroke-linejoin:round;" version="1.1" viewBox="0 0 228.051 216.4" width="100%" xml:space="preserve" xmlns="http://www.w3.org/2000/svg" xmlns:vectornator="http://vectornator.io" xmlns:xlink="http://www.w3.org/1999/xlink">
<defs>
<path d="M38.1366 173.354L38.1183 173.352C33.0723 172.936 29.7662 168.57 30.734 163.601L30.7375 163.583C31.7053 158.613 28.6258 153.2 23.8594 151.492L23.8421 151.486C19.0757 149.778 17.0123 144.705 19.2333 140.155L19.2414 140.139C21.4624 135.589 19.8889 129.563 15.7269 126.68L15.7118 126.67C11.5498 123.787 10.8696 118.353 14.1926 114.533L14.2046 114.519C17.5276 110.699 17.5673 104.471 14.2933 100.609L14.2814 100.595C11.0074 96.7328 11.7568 91.3079 15.9553 88.478L15.9705 88.4678C20.169 85.6379 21.8192 79.6328 19.6563 75.0549L19.6485 75.0383C17.4856 70.4604 19.6135 65.4144 24.4014 63.7676L24.4187 63.7616C29.2065 62.1148 32.3547 56.7414 31.4504 51.7597L31.4471 51.7417C30.5428 46.76 33.9043 42.4366 38.9552 42.0851L38.9735 42.0838C44.0244 41.7324 48.456 37.3568 48.8719 32.3108L48.8734 32.2925C49.2892 27.2465 53.6551 23.9405 58.6249 24.9083L58.6429 24.9118C63.6127 25.8795 69.0258 22.8001 70.7335 18.0337L70.7397 18.0164C72.4473 13.25 77.5201 11.1865 82.0701 13.4076L82.0866 13.4156C86.6365 15.6367 92.6622 14.0632 95.5453 9.90117L95.5558 9.88608C98.4389 5.72404 103.873 5.04386 107.693 8.36684L107.707 8.37889C111.527 11.7019 117.755 11.7416 121.617 8.46757L121.631 8.4557C125.493 5.18169 130.918 5.93111 133.747 10.1296L133.758 10.1448C136.588 14.3432 142.593 15.9934 147.171 13.8306L147.187 13.8227C151.765 11.6599 156.811 13.7878 158.458 18.5756L158.464 18.593C160.111 23.3808 165.484 26.529 170.466 25.6247L170.484 25.6214C175.466 24.7171 179.789 28.0785 180.14 33.1294L180.142 33.1477C180.493 38.1986 184.869 42.6303 189.915 43.0461L189.933 43.0476C194.979 43.4635 198.285 47.8294 197.317 52.7991L197.314 52.8172C196.346 57.7869 199.425 63.2 204.192 64.9077L204.209 64.9139C208.976 66.6216 211.039 71.6944 208.818 76.2443L208.81 76.2608C206.589 80.8108 208.162 86.8365 212.324 89.7196L212.339 89.7301C216.501 92.6132 217.182 98.0472 213.859 101.867L213.847 101.881C210.524 105.701 210.484 111.929 213.758 115.791L213.77 115.805C217.044 119.667 216.294 125.092 212.096 127.922L212.081 127.932C207.882 130.762 206.232 136.767 208.395 141.345L208.403 141.361C210.566 145.939 208.438 150.985 203.65 152.632L203.633 152.638C198.845 154.285 195.697 159.658 196.601 164.64L196.604 164.658C197.508 169.64 194.147 173.963 189.096 174.315L189.078 174.316C184.027 174.667 179.595 179.043 179.179 184.089L179.178 184.107C178.762 189.153 174.396 192.459 169.426 191.492L169.408 191.488C164.439 190.52 159.025 193.6 157.318 198.366L157.312 198.383C155.604 203.15 150.531 205.213 145.981 202.992L145.965 202.984C141.415 200.763 135.389 202.337 132.506 206.499L132.495 206.514C129.612 210.676 124.178 211.356 120.358 208.033L120.344 208.021C116.524 204.698 110.297 204.658 106.435 207.932L106.421 207.944C102.559 211.218 97.1336 210.469 94.3038 206.27L94.2935 206.255C91.4637 202.057 85.4585 200.406 80.8807 202.569L80.8641 202.577C76.2862 204.74 71.2401 202.612 69.5933 197.824L69.5874 197.807C67.9406 193.019 62.5672 189.871 57.5855 190.775L57.5674 190.778C52.5857 191.683 48.2623 188.321 47.9108 183.27L47.9096 183.252C47.5581 178.201 43.1826 173.769 38.1366 173.354Z" id="Fill"/>
<g id="Fill_2">
<path d="M35.116 97.5105L44.1404 95.6391L44.8617 90.2824L28.8829 88.1309L28.4532 91.3221L40.2834 92.915L40.265 93.0518L29.8768 95.227L29.4901 98.099C32.6357 99.7294 35.7812 101.36 38.9268 102.99L38.9145 103.081L27.0843 101.488L26.6362 104.816L42.615 106.968L43.3178 101.748L35.1037 97.6017L35.116 97.5105Z"/>
<path d="M30.5363 114.213C29.9866 113.851 29.5546 113.115 29.5079 112.265C29.4586 111.37 29.9591 110.835 30.694 110.795C31.8193 110.733 32.4093 111.829 32.3735 114.112L30.5363 114.213ZM40.2849 111.788C40.1271 108.918 38.3341 107.726 37.5944 107.26L35.9152 109.817C36.6907 110.097 37.4392 110.724 37.5074 111.964C37.5654 113.02 37.1733 113.848 35.7264 113.928L34.716 113.983C34.698 109.884 33.1724 107.273 30.1869 107.437C28.3267 107.539 26.6763 108.943 26.8151 111.469C26.9173 113.329 27.7741 114.249 28.4437 114.696L28.4487 114.788C27.6664 115.223 27.1084 115.968 27.1766 117.208C27.2081 117.782 27.3328 118.374 27.7076 118.906L30.096 118.775L30.0758 118.407C30.0417 117.787 30.3481 117.494 31.083 117.454L36.2731 117.168C39.4194 116.996 40.4667 115.095 40.2849 111.788Z"/>
<path d="M42.2158 126.341C42.2295 126.035 42.1955 125.597 42.1288 125.235C41.8204 123.561 40.7113 122.619 39.3714 122.328L39.3547 122.238L41.1029 121.191L40.611 118.522L27.8312 120.877L28.4565 124.27L37.1196 122.673C37.8679 123.307 38.4918 124.408 38.6877 125.471C38.7711 125.924 38.8527 126.493 38.8456 126.962L42.2158 126.341Z"/>
<path d="M47.323 128.265L46.25 124.962L29.6688 130.348L30.7418 133.651L47.323 128.265ZM37.3108 131.614L31.8503 137.064L33.1222 140.979L38.4986 135.122L38.5861 135.093L45.4531 136.877L44.2238 133.093L37.3983 131.586L37.3108 131.614Z"/>
<path d="M45.6562 146.012C47.7169 145.488 49.0251 145.132 50.3586 144.683L50.4045 144.762C49.3067 145.713 48.4511 146.578 46.8281 148.23L45.185 149.893L43.2905 146.605L45.6562 146.012ZM51.2884 141.413L34.8841 145.237L36.6523 148.306L40.3776 147.354L43.0759 152.037L40.3726 154.763L42.2097 157.952L53.7341 145.658L51.2884 141.413Z"/>
<path d="M58.7833 157.485C58.6523 157.208 58.4177 156.836 58.1897 156.547C57.1355 155.211 55.7151 154.896 54.3943 155.264L54.3374 155.192L55.3944 153.45L53.7133 151.319L43.5115 159.369L45.6485 162.077L52.564 156.621C53.5217 156.832 54.5875 157.514 55.2571 158.363C55.5421 158.724 55.8802 159.19 56.0929 159.608L58.7833 157.485Z"/>
<path d="M53.5103 170.942C55.0481 172.462 56.1074 172.83 56.6445 172.908L57.8334 170.429C57.1987 170.351 56.5622 169.981 56.1696 169.593C55.5643 168.995 55.5278 168.312 56.1583 167.674L60.572 163.208L62.8786 165.488L64.7379 163.606L62.4312 161.327L64.727 159.004L63.1565 157.452L60.1556 158.787L58.4764 158.097L56.9567 159.635L58.1345 160.799L53.7855 165.2C51.5706 167.441 51.9235 169.374 53.5103 170.942Z"/>
<path d="M64.2797 176.28C62.703 175.124 62.3057 173.293 62.1571 172.329L58.83 173.483C58.908 174.31 59.6504 176.565 62.1546 178.401C65.4565 180.821 68.4574 180.112 69.8851 178.164C72.9174 174.028 66.7131 169.965 68.2496 167.869C68.7256 167.219 69.6257 167.081 70.5532 167.761C71.9259 168.767 72.0696 170.127 72.0994 170.748L75.3982 169.943C75.3795 169.074 74.7596 167.08 72.5892 165.489C69.8995 163.517 66.77 163.818 65.1927 165.97C62.1876 170.069 68.3832 174.183 66.8739 176.242C66.3708 176.929 65.4113 177.109 64.2797 176.28Z"/>
<path d="M73.9539 185.635C75.861 186.653 76.9812 186.704 77.5183 186.626L77.9515 183.91C77.321 184.017 76.6054 183.843 76.1185 183.583C75.3678 183.182 75.1382 182.538 75.5608 181.747L78.5189 176.209L81.3794 177.736L82.6255 175.403L79.7649 173.875L81.3036 170.995L79.3559 169.954L76.8599 172.089L75.0538 171.907L74.0353 173.814L75.496 174.594L72.5812 180.051C71.0968 182.831 71.986 184.583 73.9539 185.635Z"/>
<path d="M81.5557 184.565C80.5424 187.475 81.3258 189.282 83.9541 190.197C85.4963 190.734 86.6477 190.575 87.667 189.956L87.7539 189.986L87.8168 191.274L90.5972 192.242L94.8697 179.97L91.5897 178.828L88.633 187.321C88.3231 187.651 87.4237 188.556 85.9901 188.057C84.8823 187.671 84.4727 186.749 84.9415 185.402L87.7016 177.474L84.4217 176.332L81.5557 184.565Z"/>
<path d="M102.884 181.656C102.496 181.471 102.025 181.225 100.825 181.014C98.129 180.54 94.923 181.775 93.9757 187.166C93.2434 191.334 94.9037 193.448 97.5994 193.921C99.3211 194.224 100.518 193.523 100.944 193.225L101.035 193.241L101.396 194.378L104.069 194.848L107.086 177.677L103.688 177.08L102.884 181.656ZM99.0924 191.405C97.7786 191.174 97.0555 189.973 97.4934 187.481C98.1023 184.015 99.4331 183.618 100.838 183.865C101.472 183.976 102.184 184.312 102.457 184.616L101.39 190.687C100.799 191.261 100.044 191.572 99.0924 191.405Z"/>
<path d="M107.298 195.01L110.765 195.206L111.499 182.232L108.032 182.036L107.298 195.01ZM107.924 178.643C107.863 179.723 108.686 180.645 109.788 180.707C110.96 180.773 111.882 179.95 111.943 178.871C112.01 177.677 111.187 176.755 110.016 176.688C108.914 176.626 107.992 177.449 107.924 178.643Z"/>
<path d="M116.474 188.669C116.319 186.029 116.932 184.702 118.516 184.609C120.307 184.503 121.057 185.888 121.215 188.574C121.37 191.214 120.895 192.533 119.127 192.637C117.382 192.74 116.633 191.355 116.474 188.669ZM119.172 195.353C123.466 195.1 125.001 192.222 124.766 188.227C124.529 184.209 122.971 181.628 118.494 181.891C114.201 182.144 112.688 185.021 112.924 189.016C113.16 193.034 114.718 195.615 119.172 195.353Z"/>
<path d="M126.681 192.344C126.893 193.544 128.039 194.346 129.262 194.13C130.553 193.902 131.355 192.757 131.143 191.556C130.912 190.242 129.766 189.44 128.475 189.668C127.252 189.884 126.45 191.03 126.681 192.344Z"/>
<path d="M131.635 187.1C132.925 191.611 135.513 192.88 138.896 191.913C141.55 191.154 142.446 189.773 142.882 188.62L140.196 187.259C140.045 187.9 139.527 188.766 138.421 189.082C136.851 189.531 135.723 188.514 134.964 185.861C134.186 183.141 134.862 181.99 136.3 181.579C137.56 181.219 138.454 181.92 138.72 182.179L140.346 179.417C139.183 178.53 137.528 178.262 135.515 178.837C132.132 179.805 130.376 182.699 131.635 187.1Z"/>
<path d="M146.313 181.972C145.18 179.582 145.251 178.123 146.685 177.443C148.306 176.674 149.52 177.677 150.673 180.109C151.806 182.499 151.859 183.899 150.259 184.658C148.679 185.406 147.465 184.404 146.313 181.972ZM151.317 187.159C155.204 185.317 155.549 182.073 153.835 178.457C152.111 174.82 149.7 173.01 145.647 174.931C141.761 176.774 141.436 180.008 143.15 183.624C144.875 187.261 147.285 189.071 151.317 187.159Z"/>
<path d="M160.229 167.934L160.155 167.989C159.235 167.529 158.095 167.348 156.511 168.534C155.48 169.306 154.702 170.492 154.678 171.803L154.604 171.858L153.413 171.227L151.13 172.936L158.918 183.339L161.698 181.257L156.405 174.187C156.153 173.313 156.402 172.264 157.084 171.754C158.041 171.037 159.011 171.259 159.921 172.474L164.773 178.955L167.553 176.874L162.233 169.767C161.994 168.796 162.368 167.798 163.067 167.274C163.785 166.737 164.715 166.673 165.624 167.888L170.628 174.572L173.408 172.49L168.032 165.31C166.254 162.935 164.281 162.717 162.237 164.247C160.764 165.35 160.225 166.817 160.229 167.934Z"/>
</g>
</defs>
<g id="Layer-1" vectornator:layerName="Layer 1">
<g opacity="1">
<path d="M92.9953 205.09L92.98 205.099C88.7422 207.788 83.5177 206.314 81.3108 201.806L81.3028 201.79C79.0958 197.283 73.4243 194.845 68.635 196.345L68.6176 196.351C63.8283 197.851 59.1635 195.075 58.1983 190.15L58.1948 190.132C57.2297 185.207 52.3824 181.384 47.3679 181.594L47.3497 181.595C42.3353 181.804 38.5479 177.915 38.8904 172.908L38.8917 172.89C39.2342 167.883 35.5413 162.936 30.6435 161.841L30.6257 161.837C25.7279 160.741 23.0761 156.005 24.7029 151.257L24.7088 151.24C26.3355 146.492 24.0489 140.758 19.6014 138.432L19.5853 138.424C15.1378 136.098 13.8024 130.836 16.6025 126.671L16.6127 126.656C19.4128 122.491 18.6882 116.361 14.9942 112.963L14.9808 112.951C11.2867 109.553 11.3586 104.125 15.1414 100.827L15.1551 100.815C18.9378 97.5166 19.8246 91.4073 17.1358 87.1696L17.126 87.1542C14.4372 82.9165 15.9115 77.692 20.419 75.485L20.4354 75.477C24.9429 73.2701 27.3807 67.5985 25.8803 62.8092L25.8748 62.7919C24.3744 58.0026 27.1507 53.3377 32.0758 52.3726L32.0937 52.3691C37.0188 51.404 40.8414 46.5566 40.6317 41.5422L40.6309 41.524C40.4212 36.5096 44.3103 32.7222 49.3174 33.0647L49.3355 33.0659C54.3426 33.4084 59.2896 29.7156 60.3848 24.8177L60.3888 24.8C61.484 19.9021 66.2208 17.2504 70.9687 18.8771L70.9859 18.883C75.7337 20.5098 81.4679 18.2232 83.7935 13.7757L83.8019 13.7595C86.1275 9.31204 91.3892 7.97662 95.5542 10.7768L95.5693 10.7869C99.7344 13.5871 105.865 12.8625 109.262 9.16843L109.275 9.15504C112.672 5.46099 118.1 5.5329 121.399 9.31565L121.411 9.32936C124.709 13.1121 130.818 13.9989 135.056 11.31L135.071 11.3003C139.309 8.61143 144.534 10.0858 146.74 14.5933L146.748 14.6096C148.955 19.1172 154.627 21.5549 159.416 20.0545L159.434 20.0491C164.223 18.5487 168.888 21.3249 169.853 26.2501L169.856 26.268C170.822 31.1931 175.669 35.0157 180.683 34.806L180.702 34.8052C185.716 34.5955 189.503 38.4845 189.161 43.4916L189.16 43.5098C188.817 48.5169 192.51 53.4638 197.408 54.5591L197.426 54.5631C202.323 55.6583 204.975 60.3951 203.348 65.1429L203.342 65.1601C201.716 69.908 204.002 75.6422 208.45 77.9677L208.466 77.9762C212.913 80.3017 214.249 85.5634 211.449 89.7285L211.439 89.7436C208.638 93.9086 209.363 100.039 213.057 103.437L213.07 103.449C216.765 106.846 216.693 112.274 212.91 115.573L212.896 115.585C209.113 118.883 208.227 124.992 210.915 129.23L210.925 129.246C213.614 133.483 212.14 138.708 207.632 140.915L207.616 140.923C203.108 143.13 200.671 148.801 202.171 153.591L202.176 153.608C203.677 158.397 200.901 163.062 195.975 164.027L195.958 164.031C191.032 164.996 187.21 169.843 187.42 174.858L187.42 174.876C187.63 179.89 183.741 183.678 178.734 183.335L178.716 183.334C173.709 182.991 168.762 186.684 167.666 191.582L167.662 191.6C166.567 196.498 161.83 199.149 157.083 197.523L157.065 197.517C152.318 195.89 146.583 198.177 144.258 202.624L144.249 202.64C141.924 207.088 136.662 208.423 132.497 205.623L132.482 205.613C128.317 202.813 122.186 203.537 118.789 207.231L118.777 207.245C115.379 210.939 109.951 210.867 106.653 207.084L106.641 207.07C103.342 203.288 97.2331 202.401 92.9953 205.09Z" fill="#eb493a" fill-rule="nonzero" opacity="1" stroke="#eb493a" stroke-linecap="butt" stroke-linejoin="bevel" stroke-width="2"/>
<g opacity="1">
<use fill="#f3f3f3" fill-rule="nonzero" stroke="none" xlink:href="#Fill"/>
<mask height="203.881" id="StrokeMask" maskUnits="userSpaceOnUse" width="203.881" x="12.0849" y="6.2592">
<rect fill="#000000" height="203.881" stroke="none" width="203.881" x="12.0849" y="6.2592"/>
<use fill="#ffffff" fill-rule="evenodd" stroke="none" xlink:href="#Fill"/>
</mask>
<use fill="none" mask="url(#StrokeMask)" stroke="#000000" stroke-linecap="butt" stroke-linejoin="bevel" stroke-width="2" xlink:href="#Fill"/>
</g>
<g fill="#5e5e5e" opacity="1" stroke="none">
<path d="M51.3815 59.8385L38.8246 55.6927L34.0869 61.8323L52.4012 75.9646L55.2236 72.307L41.6643 61.8438L41.7852 61.6871L56.2547 66.4334L58.7949 63.1415C56.0549 58.8597 53.315 54.578 50.5751 50.2962L50.6557 50.1917L64.2151 60.6548L67.1585 56.8405L48.8442 42.7081L44.2275 48.691L51.4621 59.734L51.3815 59.8385Z"/>
<path d="M74.3737 46.5161C74.3378 47.4592 73.7542 48.5363 72.7454 49.2242C71.6821 49.9493 70.6546 49.7312 70.0597 48.8587C69.1487 47.5228 70.057 45.9847 72.8863 44.335L74.3737 46.5161ZM64.1621 36.3443C60.754 38.6683 60.6216 41.7542 60.5982 43.0085L64.9842 43.173C64.7524 42.013 64.9667 40.6286 66.439 39.6247C67.6931 38.7694 69.0006 38.6367 70.1719 40.3544L70.9899 41.554C65.9696 44.618 63.8952 48.4291 66.3121 51.9735C67.8181 54.1819 70.7665 55.1669 73.7656 53.1218C75.974 51.6159 76.4684 49.8808 76.5204 48.7269L76.6294 48.6526C77.7436 49.2908 79.0722 49.4233 80.5445 48.4193C81.2261 47.9545 81.8606 47.3621 82.2361 46.5069L80.3025 43.6714L79.8663 43.9689C79.1301 44.4709 78.5427 44.3123 77.9477 43.4398L73.746 37.2781C71.1989 33.5429 68.0881 33.667 64.1621 36.3443Z"/>
<path d="M87.5685 24.6528C87.1337 24.7219 86.5277 24.8958 86.0382 25.0938C83.7744 26.0096 82.7704 27.8397 82.7475 29.8068L82.6251 29.8563L80.6496 27.7009L77.0398 29.1611L84.0318 46.4455L88.6206 44.5892L83.8809 32.8725C84.5563 31.6382 85.9243 30.444 87.3621 29.8624C87.9739 29.6149 88.7511 29.3361 89.4124 29.2109L87.5685 24.6528Z"/>
<path d="M96.9596 16.2402L92.0395 17.029L95.9989 41.7276L100.919 40.9389L96.9596 16.2402ZM99.4876 31.1754L106.002 40.124L111.835 39.189L104.723 30.2692L104.702 30.1389L108.753 20.8L103.116 21.7036L99.4667 31.0451L99.4876 31.1754Z"/>
<path d="M121.17 23.0771C121.823 21.5172 122.387 20.1806 122.919 18.8408L123.05 18.8539C123.336 20.3084 123.596 21.694 123.955 23.4211L125.645 31.4163L117.895 30.6435L121.17 23.0771ZM121.162 16.8415L111.412 39.1171L114.105 39.3856L116.907 32.8997L126.167 33.823L127.634 40.7346L130.392 41.0097L125.233 17.2476L121.162 16.8415Z"/>
<path d="M145.92 27.5065C145.573 27.2912 145.028 27.0468 144.242 26.7947C142.262 26.1593 140.389 26.5977 139.241 27.5811L139.116 27.5408L139.187 25.4841L137.333 24.8891L131.847 41.9822L134.266 42.7588L138.35 30.0332C139.662 28.7557 141.602 28.6505 143.267 29.185C143.895 29.3867 144.535 29.6614 145.103 30.0516L145.92 27.5065Z"/>
<path d="M146.85 48.2545C148.755 49.242 150.007 49.4081 150.804 49.3755L151.102 47.225C150.555 47.276 149.671 47.1892 148.382 46.5207C146.975 45.7915 146.447 44.5882 147.374 42.8012L152.417 33.0752L156.812 35.3539L157.769 33.5083L153.374 31.2296L155.547 27.0403L153.994 26.2352L151.149 30.0012L148.548 29.2101L147.789 30.6749L150.162 31.9054L145.057 41.7486C143.492 44.766 144.214 46.8873 146.85 48.2545Z"/>
<path d="M158.367 53.3559C156.22 51.6023 155.498 49.5643 155.17 47.9323L152.632 48.5868C152.903 50.3419 153.975 52.8371 156.685 55.0499C160.518 58.1813 164.502 57.6858 166.715 54.9767C171.224 49.4563 161.978 43.3527 165.36 39.2123C166.696 37.5766 168.909 37.4239 171.005 39.1357C172.512 40.3674 173.194 41.7762 173.504 43.2225L176.051 42.6609C175.717 40.9824 174.675 39.0236 172.656 37.3744C169.436 34.744 165.398 34.9401 163.186 37.6492C158.572 43.2974 167.86 49.3499 164.54 53.4136C163.184 55.0748 160.795 55.3391 158.367 53.3559Z"/>
<path d="M167.947 66.2234C169.305 67.8839 170.389 68.532 171.135 68.8177L172.259 66.9605C171.736 66.7909 170.959 66.3612 170.04 65.2371C169.037 64.0109 169.028 62.6968 170.586 61.4224L179.067 54.4868L182.201 58.3186L183.81 57.0025L180.677 53.1707L184.33 50.1833L183.222 48.8294L179.119 51.1619L177.044 49.406L175.767 50.4505L177.459 52.5197L168.875 59.539C166.244 61.6907 166.067 63.9243 167.947 66.2234Z"/>
<path d="M177.126 68.6352C173.52 70.572 172.708 73.2769 174.377 76.5743C175.734 79.2534 177.848 79.9954 178.69 80.124L178.749 80.2417L177.295 81.533L178.204 83.3289L194.22 75.2194L193.057 72.923L182.547 78.2449C179.985 79.468 177.811 78.4607 176.648 76.1643C175.44 73.7796 176.14 72.0198 178.76 70.6931L189.241 65.3861L188.078 63.0897L177.126 68.6352Z"/>
<path d="M199.03 93.6877C199.016 92.8465 198.934 91.851 198.71 90.8191C197.637 85.8854 193.709 83.1935 187.356 84.5746C181.616 85.8224 179.551 88.9055 180.414 92.8719C180.911 95.1614 182.358 96.5354 183.537 96.9882L183.565 97.1172L181.911 98.051L182.318 99.9213L206.793 94.6004L206.253 92.1174L199.03 93.6877ZM182.693 92.9504C182.189 90.6286 183.299 88.1246 188.2 87.059C193.037 86.0074 195.704 87.5552 196.545 91.4248C196.721 92.231 196.787 93.4662 196.708 94.1925L186.421 96.4288C184.629 96.1091 183.149 95.0464 182.693 92.9504Z"/>
<path d="M182.437 104.94L182.514 107.512L200.458 106.975L200.381 104.402L182.437 104.94ZM205.604 103.519C204.548 103.551 203.781 104.399 203.812 105.421C203.844 106.51 204.661 107.311 205.716 107.279C206.805 107.247 207.572 106.398 207.539 105.31C207.508 104.287 206.692 103.486 205.604 103.519Z"/>
<path d="M191.395 116.109C195.986 116.862 198.025 118.5 197.475 121.855C196.914 125.274 194.367 126.327 189.612 125.548C184.988 124.789 182.944 123.183 183.505 119.764C184.061 116.377 186.64 115.329 191.395 116.109ZM181.323 119.205C180.441 124.578 183.91 127.288 189.38 128.185C194.786 129.072 198.738 127.814 199.625 122.408C200.506 117.035 197.097 114.369 191.627 113.471C186.188 112.579 182.204 113.832 181.323 119.205Z"/>
</g>
<g opacity="1">
<use fill="#ffffff" stroke="none" xlink:href="#Fill_2"/>
<mask height="403.785" id="StrokeMask_2" maskUnits="userSpaceOnUse" width="443.316" x="-121.636" y="-60.1413">
<rect fill="#ffffff" height="403.785" stroke="none" width="443.316" x="-121.636" y="-60.1413"/>
<use fill="#000000" fill-rule="evenodd" stroke="none" xlink:href="#Fill_2"/>
</mask>
<use fill="none" mask="url(#StrokeMask_2)" stroke="#000000" stroke-linecap="butt" stroke-linejoin="bevel" stroke-width="1" xlink:href="#Fill_2"/>
</g>
<path d="M50.1678 108.2C50.1678 72.9322 78.7579 44.342 114.026 44.342C149.293 44.342 177.883 72.9322 177.883 108.2C177.883 143.468 149.293 172.058 114.026 172.058C78.7579 172.058 50.1678 143.468 50.1678 108.2Z" fill="#ffffff" fill-rule="nonzero" opacity="1" stroke="none"/>
<path d="M114.026 63.4488C89.3103 63.4488 69.2745 83.4845 69.2745 108.2C69.2745 132.915 89.3103 152.951 114.026 152.951C138.741 152.951 158.777 132.915 158.777 108.2C158.777 83.4845 138.741 63.4488 114.026 63.4488Z" fill="#ffffff" fill-rule="nonzero" opacity="1" stroke="#eb493a" stroke-linecap="round" stroke-linejoin="miter" stroke-opacity="0.5" stroke-width="14"/>
<path d="M111.055 129.019C106.702 129.011 96.0829 129.206 96.0829 129.206C96.0829 129.206 94.2607 118.735 93.436 114.466C91.6639 105.368 89.8076 95.9691 95.7851 88.7321C101.216 82.1567 109.618 81.3697 116.201 86.807C119.99 89.9364 121.024 95.3601 121.256 98.7086C124.598 98.3116 130.124 98.3066 133.913 101.436C140.498 106.875 141.31 115.273 135.879 121.848C129.904 129.083 120.316 129.034 111.055 129.019Z" fill="#eb493a" fill-rule="nonzero" opacity="1" stroke="#eb493a" stroke-linecap="butt" stroke-linejoin="round" stroke-width="2"/>
</g>
</g>
</svg>
